# Tiled2Unity generated file. Do not modify by hand.
# Wavefront file for 'test_area_mesh_0003.obj'

# Vertices (Count = 100)
v -288 -96 0
v -304 -96 0
v -304 -80 0
v -288 -80 0
v -288 -112 0
v -304 -112 0
v -304 -96 0
v -288 -96 0
v -192 -112 0
v -208 -112 0
v -208 -96 0
v -192 -96 0
v -432 -128 0
v -448 -128 0
v -448 -112 0
v -432 -112 0
v -192 -128 0
v -208 -128 0
v -208 -112 0
v -192 -112 0
v -432 -144 0
v -448 -144 0
v -448 -128 0
v -432 -128 0
v -336 -144 0
v -352 -144 0
v -352 -128 0
v -336 -128 0
v -336 -160 0
v -352 -160 0
v -352 -144 0
v -336 -144 0
v -544 -208 0
v -560 -208 0
v -560 -192 0
v -544 -192 0
v -608 -224 0
v -624 -224 0
v -624 -208 0
v -608 -208 0
v -544 -224 0
v -560 -224 0
v -560 -208 0
v -544 -208 0
v -112 -224 0
v -128 -224 0
v -128 -208 0
v -112 -208 0
v -608 -240 0
v -624 -240 0
v -624 -224 0
v -608 -224 0
v -112 -240 0
v -128 -240 0
v -128 -224 0
v -112 -224 0
v -464 -272 0
v -480 -272 0
v -480 -256 0
v -464 -256 0
v -416 -272 0
v -432 -272 0
v -432 -256 0
v -416 -256 0
v -112 -272 0
v -128 -272 0
v -128 -256 0
v -112 -256 0
v -464 -288 0
v -480 -288 0
v -480 -272 0
v -464 -272 0
v -192 -288 0
v -208 -288 0
v -208 -272 0
v -192 -272 0
v -160 -320 0
v -176 -320 0
v -176 -304 0
v -160 -304 0
v -368 -336 0
v -384 -336 0
v -384 -320 0
v -368 -320 0
v -192 -336 0
v -208 -336 0
v -208 -320 0
v -192 -320 0
v -240 -352 0
v -256 -352 0
v -256 -336 0
v -240 -336 0
v -192 -352 0
v -208 -352 0
v -208 -336 0
v -192 -336 0
v -96 -352 0
v -112 -352 0
v -112 -336 0
v -96 -336 0

# Texture cooridinates (Count = 12)
vt 0.2809917 0.6463878
vt 0.2975207 0.6463878
vt 0.2975207 0.6768061
vt 0.2809917 0.6768061
vt 0.2809917 0.6140684
vt 0.2975207 0.6140684
vt 0.2975207 0.6444867
vt 0.2809917 0.6444867
vt 0.4039256 0.6787072
vt 0.4204545 0.6787072
vt 0.4204545 0.7091255
vt 0.4039256 0.7091255

# Normal
vn 0 0 -1

# Mesh description
g test_area_mesh_0003

# Faces
f 1/1/1 2/2/1 3/3/1 4/4/1
f 5/5/1 6/6/1 7/7/1 8/8/1
f 9/1/1 10/2/1 11/3/1 12/4/1
f 13/1/1 14/2/1 15/3/1 16/4/1
f 17/5/1 18/6/1 19/7/1 20/8/1
f 21/5/1 22/6/1 23/7/1 24/8/1
f 25/1/1 26/2/1 27/3/1 28/4/1
f 29/5/1 30/6/1 31/7/1 32/8/1
f 33/1/1 34/2/1 35/3/1 36/4/1
f 37/1/1 38/2/1 39/3/1 40/4/1
f 41/5/1 42/6/1 43/7/1 44/8/1
f 45/1/1 46/2/1 47/3/1 48/4/1
f 49/5/1 50/6/1 51/7/1 52/8/1
f 53/5/1 54/6/1 55/7/1 56/8/1
f 57/1/1 58/2/1 59/3/1 60/4/1
f 61/9/1 62/10/1 63/11/1 64/12/1
f 65/9/1 66/10/1 67/11/1 68/12/1
f 69/5/1 70/6/1 71/7/1 72/8/1
f 73/9/1 74/10/1 75/11/1 76/12/1
f 77/9/1 78/10/1 79/11/1 80/12/1
f 81/9/1 82/10/1 83/11/1 84/12/1
f 85/1/1 86/2/1 87/3/1 88/4/1
f 89/9/1 90/10/1 91/11/1 92/12/1
f 93/5/1 94/6/1 95/7/1 96/8/1
f 97/9/1 98/10/1 99/11/1 100/12/1

